<svg viewBox="0 0 18 18" fill="none" xmlns="http://www.w3.org/2000/svg">
<path d="M14.8141 5.36325C16.0189 5.36325 16.9957 4.3865 16.9957 3.18162C16.9957 1.97675 16.0189 1 14.8141 1C13.6092 1 12.6324 1.97675 12.6324 3.18162C12.6324 4.3865 13.6092 5.36325 14.8141 5.36325Z" stroke="currentColor" stroke-width="1.5" stroke-miterlimit="10" stroke-linecap="round" stroke-linejoin="round"/>
<path d="M14.8141 17C16.0189 17 16.9957 16.0233 16.9957 14.8184C16.9957 13.6135 16.0189 12.6367 14.8141 12.6367C13.6092 12.6367 12.6324 13.6135 12.6324 14.8184C12.6324 16.0233 13.6092 17 14.8141 17Z" stroke="currentColor" stroke-width="1.5" stroke-miterlimit="10" stroke-linecap="round" stroke-linejoin="round"/>
<path d="M3.18162 11.1816C4.3865 11.1816 5.36325 10.2049 5.36325 9.00001C5.36325 7.79514 4.3865 6.81839 3.18162 6.81839C1.97675 6.81839 1 7.79514 1 9.00001C1 10.2049 1.97675 11.1816 3.18162 11.1816Z" stroke="currentColor" stroke-width="1.5" stroke-miterlimit="10" stroke-linecap="round" stroke-linejoin="round"/>
<path d="M5.12891 9.97363L12.8519 13.8424" stroke="currentColor" stroke-width="1.5" stroke-miterlimit="10" stroke-linecap="round" stroke-linejoin="round"/>
<path d="M12.8664 4.15738L5.12891 8.02613" stroke="currentColor" stroke-width="1.5" stroke-miterlimit="10" stroke-linecap="round" stroke-linejoin="round"/>
</svg>
