<svg width="150" height="80" viewBox="0 0 150 80" fill="none" xmlns="http://www.w3.org/2000/svg">
<g clip-path="url(#clip0)">
<path d="M78.8745 29.5055H73.4317L70.8487 46.2029L68.0812 29.5055H62.6384V50.9077H65.9594V33.6568L68.7269 49.893C68.9114 50.7232 69.2804 50.9077 69.8339 50.9077H71.7712C72.5092 50.9077 72.786 50.631 72.9705 49.893L75.6457 33.4723V50.9077H78.9668V29.5055H78.8745Z" fill="#2A2635"/>
<path d="M91.4206 46.941V38.9151C91.4206 35.8708 90.1291 34.3026 86.9926 34.3026H82.749V37.4391H86.6236C87.6383 37.4391 88.0073 37.8081 88.0073 38.8229V40.0221H85.8856C83.0258 40.0221 81.4575 41.1291 81.4575 44.2657V46.8487C81.4575 49.9852 83.3025 51.2767 86.4391 51.2767C89.5756 51.369 91.4206 49.9852 91.4206 46.941ZM88.0073 46.8487C88.0073 48.048 87.2693 48.2325 86.4391 48.2325C85.5166 48.2325 84.8708 47.8635 84.8708 46.6642V44.4502C84.8708 43.3432 85.6088 43.0664 86.2546 43.0664H88.0073V46.8487Z" fill="#2A2635"/>
<path d="M97.5092 39.4686C97.5092 37.8081 97.9704 37.2546 99.1697 37.2546H100.553V34.0258H98.8007C95.1107 34.0258 94.0037 35.5018 94.0037 39.1919V50.9077H97.5092V39.4686Z" fill="#2A2635"/>
<path d="M114.852 50.9077L110.517 42.7897C110.332 42.3284 110.055 42.0517 109.871 41.7749L114.483 34.3026H110.609L106.642 40.9446H106.273V29.5055H102.675V50.9077H106.273V44.0812H106.642C107.196 44.0812 107.38 44.3579 107.657 44.9114L110.886 50.9077H114.852Z" fill="#2A2635"/>
<path d="M120.572 50.9077H125.277V47.7712H121.033C119.926 47.7712 119.28 47.7712 119.28 46.1107V45.6494H121.31C123.985 45.6494 125.922 45.1882 125.922 41.3137V39.1919C125.922 35.6863 124.17 33.9336 120.849 33.9336C117.435 33.9336 115.683 35.7786 115.683 39.1919V46.0184C115.775 50.262 118.173 50.9077 120.572 50.9077ZM119.373 39.0074C119.373 37.5314 119.834 36.9779 120.941 36.9779C122.048 36.9779 122.509 37.5314 122.509 38.9151V40.7601C122.509 42.0517 122.048 42.5129 120.849 42.5129H119.373V39.0074Z" fill="#2A2635"/>
<path d="M129.613 45.6494C129.613 49.4317 131.181 50.9077 134.871 50.9077H135.886V47.5867H135.148C133.856 47.5867 133.21 47.1255 133.21 45.3727V37.6236H135.332V34.4871H133.21V29.5978H129.613V34.5793H127.86V37.7159H129.613V45.6494Z" fill="#2A2635"/>
<path d="M69.6494 73.6937C69.6494 75.0775 69.0037 75.631 67.9889 75.631C66.9741 75.631 66.3284 75.0775 66.3284 73.6937V56.8118H62.7306V73.417C62.7306 76.8303 64.5756 78.7675 67.8966 78.7675C71.2177 78.7675 73.0627 76.8303 73.0627 73.417V56.8118H69.6494V73.6937Z" fill="#2A2635"/>
<path d="M80.9041 61.2399C77.583 61.2399 75.8303 62.9004 75.8303 66.3137V78.3063H79.3358V66.4982C79.3358 65.0221 79.9816 64.3764 80.9963 64.3764C82.0111 64.3764 82.6568 65.0221 82.6568 66.4982V78.214H86.1624V66.2214C86.1624 62.8081 84.2251 61.2399 80.9041 61.2399Z" fill="#2A2635"/>
<path d="M92.4354 61.4243H88.8376V78.3063H92.4354V61.4243Z" fill="#2A2635"/>
<path d="M92.4354 56.5351H88.8376V60.1328H92.4354V56.5351Z" fill="#2A2635"/>
<path d="M100.277 75.0775L97.6937 61.7011H94.0959L97.2325 76.2768C97.5092 77.5683 97.9705 78.3063 98.8007 78.3063H101.292C102.122 78.3063 102.583 77.5683 102.86 76.2768L106.089 61.7011H102.583L100.277 75.0775Z" fill="#2A2635"/>
<path d="M112.915 61.2399C109.502 61.2399 107.749 63.0849 107.749 66.4982V73.3247C107.749 77.5683 110.055 78.214 112.546 78.214H117.251V75.0775H113.007C111.9 75.0775 111.255 75.0775 111.255 73.417V72.9557H113.284C115.959 72.9557 117.897 72.4945 117.897 68.6199V66.4982C117.989 62.9926 116.236 61.2399 112.915 61.2399ZM114.391 68.2509C114.391 69.5424 113.93 70.0037 112.731 70.0037H111.255V66.4059C111.255 64.9299 111.716 64.3764 112.823 64.3764C113.93 64.3764 114.391 64.9299 114.391 66.3137V68.2509Z" fill="#2A2635"/>
<path d="M120.387 66.5904V78.3063H123.893V66.7749C123.893 65.1144 124.354 64.5609 125.554 64.5609H126.937V61.3321H125.184C121.494 61.4244 120.387 62.9004 120.387 66.5904Z" fill="#2A2635"/>
<path d="M134.41 68.8967L133.764 68.5277C132.38 67.6974 132.011 67.0517 132.011 66.2214C132.011 65.2066 132.657 64.7454 133.672 64.7454H136.624V61.6089H133.764C130.258 61.6089 128.598 63.3616 128.598 66.2214C128.598 68.7122 129.889 70.0037 131.827 71.1107L132.657 71.572C133.948 72.31 134.225 72.679 134.225 73.6937C134.225 74.7085 133.579 75.0775 132.472 75.0775H128.782V78.214H132.841C135.793 78.214 137.546 76.738 137.546 73.6937C137.731 71.3875 136.9 70.3727 134.41 68.8967Z" fill="#2A2635"/>
<path d="M145.387 72.9557C148.063 72.9557 150 72.4945 150 68.6199V66.4982C150 62.9926 148.247 61.2399 144.926 61.2399C141.513 61.2399 139.76 63.0849 139.76 66.4982V73.3247C139.76 77.5683 142.066 78.214 144.557 78.214H149.262V75.0775H145.018C143.911 75.0775 143.266 75.0775 143.266 73.417V72.9557H145.387ZM143.358 66.4059C143.358 64.9299 143.819 64.3764 144.926 64.3764C146.033 64.3764 146.494 64.9299 146.494 66.3137V68.1587C146.494 69.4502 146.033 69.9114 144.834 69.9114H143.358V66.4059Z" fill="#2A2635"/>
<path d="M33.8561 30.5203C40.2214 27.6605 47.2325 28.0295 53.0443 30.9815V27.476C53.0443 25.1697 52.7675 22.9557 52.214 20.8339C50.738 14.9299 47.1402 9.85609 42.4354 6.2583C42.0664 5.98155 41.7897 5.79705 41.4207 5.5203C40.8672 5.15129 40.3137 4.78229 39.6679 4.50553C39.1144 4.22878 38.5609 3.95203 38.0074 3.67528C37.2694 3.30627 36.4391 2.93727 35.6089 2.66052C35.2398 2.47601 34.7786 2.38376 34.4096 2.19926C33.6716 2.01476 32.9336 1.73801 32.1956 1.64576C31.6421 1.55351 31.0886 1.46125 30.6273 1.369C29.2435 1.09225 27.952 1 26.5683 1C24.7232 1 22.9705 1.1845 21.2177 1.55351C20.2952 1.73801 19.4649 1.92251 18.6347 2.19926C17.3432 2.56827 16.1439 3.02952 15.0369 3.58303C14.2989 3.95203 13.4686 4.32103 12.8229 4.78229C10.9779 5.8893 9.31734 7.18081 7.84133 8.74908C7.19557 9.39483 6.64207 9.94834 6.08856 10.5941C4.98155 11.8856 4.05904 13.3616 3.22878 14.8376C2.85978 15.5756 2.49077 16.4059 2.12177 17.1439C1.66052 18.3432 1.19926 19.5424 0.830258 20.8339C0.276753 23.048 0 25.262 0 27.5683V79.8745H53.0443V72.4022C52.952 72.4022 52.8598 72.4945 52.8598 72.4945C47.048 75.1697 40.6827 74.9852 35.2399 72.7712C40.2214 71.2952 45.3875 69.2657 50.369 67.0517C51.2915 66.6827 52.214 66.2214 53.0443 65.7601V61.6089C51.6605 62.2546 50.2768 62.9926 48.8007 63.6384C28.9668 72.5867 10.7011 75.0775 8.02583 69.0812C6.27306 65.2066 11.5314 58.6568 20.941 52.107C20.3875 43.1587 25.2768 34.3948 33.8561 30.5203ZM11.9926 41.2214C10.6089 41.2214 9.5941 40.1144 9.5941 38.8229C9.5941 37.4391 10.7011 36.4244 11.9926 36.4244C13.3764 36.4244 14.3911 37.5314 14.3911 38.8229C14.3911 40.1144 13.2841 41.2214 11.9926 41.2214ZM26.5683 13.6384C29.2435 13.6384 31.3653 15.7601 31.3653 18.4354C31.3653 21.1107 29.2435 23.2325 26.5683 23.2325C23.893 23.2325 21.7712 21.1107 21.7712 18.4354C21.7712 15.7601 23.893 13.6384 26.5683 13.6384Z" fill="#2A2635"/>
<path d="M21.5867 55.7048C17.8044 58.8413 15.9594 61.7011 16.7897 63.4539C17.6199 65.2989 21.2177 65.6679 26.2915 64.8376C25 63.2694 23.893 61.5166 22.9705 59.6716C22.3247 58.3801 21.8635 56.9963 21.5867 55.7048Z" fill="black"/>
<path d="M11.9926 41.2214C13.3764 41.2214 14.3912 40.1144 14.3912 38.8229C14.3912 37.4391 13.2842 36.4244 11.9926 36.4244C10.6089 36.4244 9.59412 37.5314 9.59412 38.8229C9.50187 40.1144 10.6089 41.2214 11.9926 41.2214Z" fill="#FF00FF"/>
<path d="M35.2399 72.7712C40.6827 75.0775 47.048 75.1697 52.8598 72.4945C52.952 72.4945 53.0443 72.4022 53.0443 72.4022V65.7601C52.1218 66.2214 51.1993 66.5904 50.369 67.0517C45.3875 69.3579 40.2214 71.2952 35.2399 72.7712Z" fill="#6040FF"/>
<path d="M33.8561 30.5203C25.2767 34.3948 20.3874 43.1587 20.9409 52.107C11.5313 58.6568 6.27303 65.2066 8.0258 69.0812C10.7011 75.0775 28.9668 72.5867 48.8007 63.6384C50.2767 62.9926 51.6605 62.3469 53.0443 61.6089V31.0738C47.3247 28.0295 40.2214 27.6605 33.8561 30.5203ZM16.6974 63.4539C15.8671 61.7011 17.8044 58.8413 21.4944 55.7048C21.7712 57.0886 22.2324 58.3801 22.8782 59.6716C23.7085 61.6089 24.9077 63.3616 26.1992 64.8376C21.1254 65.6679 17.5276 65.2989 16.6974 63.4539Z" fill="#6040FF"/>
</g>
<defs>
<clipPath id="clip0">
<rect width="150" height="78.8745" fill="white" transform="translate(0 1)"/>
</clipPath>
</defs>
</svg>
