<svg width="54" height="80" viewBox="0 0 54 80" fill="none" xmlns="http://www.w3.org/2000/svg">
<g clip-path="url(#clip0)">
<path d="M34.3392 29.9415C40.7953 27.0409 47.9064 27.4152 53.8012 30.4094V26.8538C53.8012 24.5146 53.5205 22.269 52.9591 20.117C51.462 14.1287 47.8129 8.98246 43.0409 5.33333C42.6667 5.05263 42.386 4.8655 42.0117 4.5848C41.4503 4.21053 40.8889 3.83626 40.2339 3.55556C39.6725 3.27485 39.1111 2.99415 38.5497 2.71345C37.8012 2.33918 36.9591 1.96491 36.117 1.68421C35.7427 1.49708 35.2749 1.40351 34.9006 1.21637C34.152 1.02924 33.4035 0.748538 32.655 0.654971C32.0936 0.561404 31.5322 0.467836 31.0643 0.374269C29.6608 0.0935672 28.3509 0 26.9474 0C25.076 0 23.2982 0.187135 21.5205 0.561404C20.5848 0.748538 19.7427 0.935672 18.9006 1.21637C17.5906 1.59064 16.3743 2.05848 15.2515 2.61988C14.5029 2.99415 13.6608 3.36842 13.0058 3.83626C11.1345 4.95906 9.45029 6.26901 7.95322 7.85965C7.29825 8.51462 6.73684 9.07602 6.17544 9.73099C5.05263 11.0409 4.11696 12.538 3.27485 14.0351C2.90058 14.7836 2.52632 15.6257 2.15205 16.3743C1.68421 17.5906 1.21637 18.807 0.842105 20.117C0.280702 22.3626 0 24.6082 0 26.9474V80H53.8012V72.4211C53.7076 72.4211 53.614 72.5146 53.614 72.5146C47.7193 75.2281 41.2632 75.0409 35.7427 72.7953C40.7953 71.2982 46.0351 69.2398 51.0877 66.9941C52.0234 66.6199 52.9591 66.152 53.8012 65.6842V61.4737C52.3977 62.1287 50.9942 62.8772 49.4971 63.5322C29.3801 72.6082 10.8538 75.1345 8.14035 69.0526C6.36257 65.1228 11.6959 58.4795 21.2398 51.8363C20.6784 42.7602 25.6374 33.8713 34.3392 29.9415ZM12.1637 40.7953C10.7602 40.7953 9.73099 39.6725 9.73099 38.3626C9.73099 36.9591 10.8538 35.9298 12.1637 35.9298C13.5673 35.9298 14.5965 37.0526 14.5965 38.3626C14.5965 39.6725 13.4737 40.7953 12.1637 40.7953ZM26.9474 12.8187C29.6608 12.8187 31.8129 14.9708 31.8129 17.6842C31.8129 20.3977 29.6608 22.5497 26.9474 22.5497C24.2339 22.5497 22.0819 20.3977 22.0819 17.6842C22.0819 14.9708 24.2339 12.8187 26.9474 12.8187Z" fill="#2A2635"/>
<path d="M21.8947 55.4854C18.0585 58.6667 16.1871 61.5673 17.0292 63.345C17.8713 65.2164 21.5204 65.5906 26.6666 64.7485C25.3567 63.1579 24.2339 61.3801 23.2982 59.5088C22.6433 58.1988 22.1754 56.7953 21.8947 55.4854Z" fill="black"/>
<path d="M12.1637 40.7953C13.5672 40.7953 14.5965 39.6725 14.5965 38.3626C14.5965 36.9591 13.4737 35.9298 12.1637 35.9298C10.7602 35.9298 9.73098 37.0526 9.73098 38.3626C9.63741 39.6725 10.7602 40.7953 12.1637 40.7953Z" fill="#FF00FF"/>
<path d="M35.7427 72.7953C41.2631 75.1345 47.7193 75.2281 53.614 72.5146C53.7076 72.5146 53.8012 72.421 53.8012 72.421V65.6842C52.8655 66.152 51.9298 66.5263 51.0877 66.9941C46.0351 69.3333 40.7953 71.2982 35.7427 72.7953Z" fill="#6040FF"/>
<path d="M34.3392 29.9415C25.6374 33.8713 20.6784 42.7602 21.2398 51.8363C11.6959 58.4795 6.3626 65.1228 8.14037 69.0526C10.8538 75.1345 29.3801 72.6082 49.4971 63.5322C50.9942 62.8772 52.3977 62.2222 53.8012 61.4737V30.5029C48 27.4152 40.7953 27.0409 34.3392 29.9415ZM16.9357 63.345C16.0936 61.5673 18.0585 58.6667 21.8012 55.4854C22.0819 56.8889 22.5497 58.1988 23.2047 59.5088C24.0468 61.4737 25.2632 63.2515 26.5731 64.7485C21.4269 65.5906 17.7778 65.2164 16.9357 63.345Z" fill="#6040FF"/>
</g>
<defs>
<clipPath id="clip0">
<rect width="53.8012" height="80" fill="white"/>
</clipPath>
</defs>
</svg>
